<?xml version="1.0" encoding="utf-8"?>
<!-- Generator: Adobe Illustrator 27.1.1, SVG Export Plug-In . SVG Version: 6.00 Build 0)  -->
<svg version="1.1" id="Layer_1" xmlns="http://www.w3.org/2000/svg" xmlns:xlink="http://www.w3.org/1999/xlink" x="0px" y="0px"
	 viewBox="0 0 200 100" style="enable-background:new 0 0 200 100;" xml:space="preserve">
<style type="text/css">
	.st0{stroke:#000000;stroke-miterlimit:10;}
</style>
<line class="st0" x1="43.86" y1="33" x2="43.86" y2="56"/>
<line class="st0" x1="50.72" y1="44.5" x2="50.72" y2="67.5"/>
<line class="st0" x1="57.58" y1="33" x2="57.58" y2="56"/>
<line class="st0" x1="64.44" y1="43.85" x2="64.44" y2="66.85"/>
<line class="st0" x1="71.3" y1="33" x2="71.3" y2="56"/>
<line class="st0" x1="78.15" y1="44.5" x2="78.15" y2="67.5"/>
<line class="st0" x1="85.01" y1="33" x2="85.01" y2="56"/>
<line class="st0" x1="91.87" y1="43.85" x2="91.87" y2="66.85"/>
<line class="st0" x1="98.73" y1="33" x2="98.73" y2="56"/>
<line class="st0" x1="105.59" y1="44.5" x2="105.59" y2="67.5"/>
<line class="st0" x1="113.85" y1="33" x2="113.85" y2="56"/>
<line class="st0" x1="122.23" y1="44.5" x2="122.23" y2="67.5"/>
<line class="st0" x1="130.62" y1="33" x2="130.62" y2="56"/>
<line class="st0" x1="138.18" y1="43.85" x2="138.18" y2="66.85"/>
<line class="st0" x1="37" y1="44.5" x2="37" y2="67.5"/>
<line class="st0" x1="145.74" y1="32.35" x2="145.74" y2="55.35"/>
<line class="st0" x1="153.29" y1="43.85" x2="153.29" y2="66.85"/>
<line class="st0" x1="160.85" y1="33" x2="160.85" y2="56"/>
<line class="st0" x1="168.41" y1="43.85" x2="168.41" y2="66.85"/>
</svg>
